<svg xmlns="http://www.w3.org/2000/svg" xmlns:xlink="http://www.w3.org/1999/xlink" width="2843" zoomAndPan="magnify" viewBox="0 0 2132.25 593.249981" height="791" preserveAspectRatio="xMidYMid meet" version="1.0"><defs><clipPath id="e749bd9ec6"><path d="M 0.972656 0 L 2130.527344 0 L 2130.527344 592.5 L 0.972656 592.5 Z M 0.972656 0 " clip-rule="nonzero"/></clipPath><clipPath id="db3c7ad9dc"><path d="M 0.972656 0 L 1066.125 0 L 1066.125 150 L 0.972656 150 Z M 0.972656 0 " clip-rule="nonzero"/></clipPath><clipPath id="1da2777d24"><path d="M 0.972656 60 L 1066.125 60 L 1066.125 173 L 0.972656 173 Z M 0.972656 60 " clip-rule="nonzero"/></clipPath><clipPath id="57e0a18f4d"><path d="M 0.972656 85 L 1066.125 85 L 1066.125 286 L 0.972656 286 Z M 0.972656 85 " clip-rule="nonzero"/></clipPath><clipPath id="a53bb80d8a"><path d="M 0.972656 206 L 1066.125 206 L 1066.125 320 L 0.972656 320 Z M 0.972656 206 " clip-rule="nonzero"/></clipPath><clipPath id="fc22a389c5"><path d="M 0.972656 259 L 1066.125 259 L 1066.125 353 L 0.972656 353 Z M 0.972656 259 " clip-rule="nonzero"/></clipPath><clipPath id="e3484e4a3d"><path d="M 0.972656 282 L 1066.125 282 L 1066.125 391 L 0.972656 391 Z M 0.972656 282 " clip-rule="nonzero"/></clipPath><clipPath id="2fa83cb373"><path d="M 0.972656 325 L 1066.125 325 L 1066.125 440 L 0.972656 440 Z M 0.972656 325 " clip-rule="nonzero"/></clipPath><clipPath id="5d10097d3f"><path d="M 0.972656 378 L 1066.125 378 L 1066.125 471 L 0.972656 471 Z M 0.972656 378 " clip-rule="nonzero"/></clipPath><clipPath id="3cf92a0c6e"><path d="M 0.972656 414 L 1066.125 414 L 1066.125 523 L 0.972656 523 Z M 0.972656 414 " clip-rule="nonzero"/></clipPath><clipPath id="f8a8ff4976"><path d="M 0.972656 493 L 1066.125 493 L 1066.125 546 L 0.972656 546 Z M 0.972656 493 " clip-rule="nonzero"/></clipPath><clipPath id="1f956c6a50"><path d="M 0.972656 520 L 1066.125 520 L 1066.125 571 L 0.972656 571 Z M 0.972656 520 " clip-rule="nonzero"/></clipPath><clipPath id="2ce8d6be50"><path d="M 0.972656 550 L 1066.125 550 L 1066.125 592.5 L 0.972656 592.5 Z M 0.972656 550 " clip-rule="nonzero"/></clipPath><clipPath id="0e92197620"><path d="M 1065.75 0 L 2130.527344 0 L 2130.527344 150 L 1065.75 150 Z M 1065.75 0 " clip-rule="nonzero"/></clipPath><clipPath id="0ece5e4eec"><path d="M 1065.75 60 L 2130.527344 60 L 2130.527344 173 L 1065.75 173 Z M 1065.75 60 " clip-rule="nonzero"/></clipPath><clipPath id="fe74574e6e"><path d="M 1065.75 85 L 2130.527344 85 L 2130.527344 286 L 1065.75 286 Z M 1065.75 85 " clip-rule="nonzero"/></clipPath><clipPath id="71ea000fd1"><path d="M 1065.75 206 L 2130.527344 206 L 2130.527344 320 L 1065.75 320 Z M 1065.75 206 " clip-rule="nonzero"/></clipPath><clipPath id="558b753674"><path d="M 1065.75 259 L 2130.527344 259 L 2130.527344 353 L 1065.75 353 Z M 1065.75 259 " clip-rule="nonzero"/></clipPath><clipPath id="9baf725ae7"><path d="M 1065.75 282 L 2130.527344 282 L 2130.527344 391 L 1065.75 391 Z M 1065.75 282 " clip-rule="nonzero"/></clipPath><clipPath id="eb76c2b0c3"><path d="M 1065.75 325 L 2130.527344 325 L 2130.527344 440 L 1065.75 440 Z M 1065.75 325 " clip-rule="nonzero"/></clipPath><clipPath id="81a3d9183f"><path d="M 1065.75 378 L 2130.527344 378 L 2130.527344 471 L 1065.75 471 Z M 1065.75 378 " clip-rule="nonzero"/></clipPath><clipPath id="bde9cb213d"><path d="M 1065.75 414 L 2130.527344 414 L 2130.527344 523 L 1065.75 523 Z M 1065.75 414 " clip-rule="nonzero"/></clipPath><clipPath id="2ac3d7d481"><path d="M 1065.75 493 L 2130.527344 493 L 2130.527344 546 L 1065.75 546 Z M 1065.75 493 " clip-rule="nonzero"/></clipPath><clipPath id="6926a88a79"><path d="M 1065.75 520 L 2130.527344 520 L 2130.527344 571 L 1065.75 571 Z M 1065.75 520 " clip-rule="nonzero"/></clipPath><clipPath id="b8a3fcfc92"><path d="M 1065.75 550 L 2130.527344 550 L 2130.527344 592.5 L 1065.75 592.5 Z M 1065.75 550 " clip-rule="nonzero"/></clipPath></defs><g clip-path="url(#e749bd9ec6)"><path fill="#ffffff" d="M 0.972656 0 L 2130.527344 0 L 2130.527344 592.5 L 0.972656 592.5 Z M 0.972656 0 " fill-opacity="1" fill-rule="nonzero"/><path fill="#ffffff" d="M 0.972656 0 L 2130.527344 0 L 2130.527344 592.5 L 0.972656 592.5 Z M 0.972656 0 " fill-opacity="1" fill-rule="nonzero"/></g><g clip-path="url(#db3c7ad9dc)"><path fill="#35558c" d="M 0.972656 71.910156 L 12.058594 68.914062 C 23.21875 65.917969 45.390625 59.925781 67.640625 62.921875 C 89.886719 65.917969 112.058594 77.902344 134.304688 93.78125 C 156.550781 109.585938 178.722656 129.363281 200.96875 138.199219 C 223.21875 147.039062 245.390625 145.089844 267.484375 133.179688 C 289.582031 121.347656 311.605469 99.625 333.703125 94.605469 C 355.796875 89.660156 377.96875 101.347656 400.21875 111.234375 C 422.464844 121.121094 444.636719 129.0625 466.882812 130.109375 C 489.128906 131.085938 511.300781 125.09375 533.546875 129.0625 C 555.796875 133.105469 577.96875 147.039062 600.214844 149.0625 C 622.460938 151.085938 644.632812 141.046875 666.878906 134.082031 C 689.125 127.113281 711.296875 123.070312 733.542969 124.117188 C 755.792969 125.09375 777.964844 131.085938 800.058594 129.0625 C 822.15625 127.113281 844.179688 117.078125 866.277344 111.085938 C 888.375 105.09375 910.546875 103.144531 932.792969 96.253906 C 955.039062 89.363281 977.210938 77.675781 999.457031 82.621094 C 1021.703125 87.640625 1043.875 109.363281 1055.035156 120.222656 L 1066.121094 131.085938 L 1066.121094 0 L 1055.035156 0 C 1043.875 0 1021.703125 0 999.457031 0 C 977.210938 0 955.039062 0 932.792969 0 C 910.546875 0 888.375 0 866.277344 0 C 844.179688 0 822.15625 0 800.058594 0 C 777.964844 0 755.792969 0 733.542969 0 C 711.296875 0 689.125 0 666.878906 0 C 644.632812 0 622.460938 0 600.214844 0 C 577.96875 0 555.796875 0 533.546875 0 C 511.300781 0 489.128906 0 466.882812 0 C 444.636719 0 422.464844 0 400.21875 0 C 377.96875 0 355.796875 0 333.703125 0 C 311.605469 0 289.582031 0 267.484375 0 C 245.390625 0 223.21875 0 200.96875 0 C 178.722656 0 156.550781 0 134.304688 0 C 112.058594 0 89.886719 0 67.640625 0 C 45.390625 0 23.21875 0 12.058594 0 L 0.972656 0 Z M 0.972656 71.910156 " fill-opacity="1" fill-rule="nonzero"/></g><g clip-path="url(#1da2777d24)"><path fill="#505a90" d="M 0.972656 95.878906 L 12.058594 92.882812 C 23.21875 89.886719 45.390625 83.894531 67.640625 87.789062 C 89.886719 91.609375 112.058594 105.390625 134.304688 122.09375 C 156.550781 138.800781 178.722656 158.574219 200.96875 167.414062 C 223.21875 176.253906 245.390625 174.304688 267.484375 162.394531 C 289.582031 150.558594 311.605469 128.835938 333.703125 123.96875 C 355.796875 119.097656 377.96875 131.085938 400.21875 140.972656 C 422.464844 150.785156 444.636719 158.574219 466.882812 158.574219 C 489.128906 158.574219 511.300781 150.785156 533.546875 153.78125 C 555.796875 156.777344 577.96875 170.558594 600.214844 171.53125 C 622.460938 172.507812 644.632812 160.820312 666.878906 153.929688 C 689.125 147.039062 711.296875 145.089844 733.542969 146.066406 C 755.792969 147.039062 777.964844 151.085938 800.058594 149.0625 C 822.15625 147.039062 844.179688 139.097656 866.277344 135.054688 C 888.375 131.085938 910.546875 131.085938 932.792969 125.242188 C 955.039062 119.324219 977.210938 107.640625 999.457031 109.585938 C 1021.703125 111.609375 1043.875 127.339844 1055.035156 135.203125 L 1066.121094 143.070312 L 1066.121094 129.585938 L 1055.035156 118.726562 C 1043.875 107.863281 1021.703125 86.140625 999.457031 81.121094 C 977.210938 76.179688 955.039062 87.863281 932.792969 94.753906 C 910.546875 101.648438 888.375 103.59375 866.277344 109.585938 C 844.179688 115.578125 822.15625 125.617188 800.058594 127.5625 C 777.964844 129.585938 755.792969 123.59375 733.542969 122.621094 C 711.296875 121.570312 689.125 125.617188 666.878906 132.582031 C 644.632812 139.546875 622.460938 149.585938 600.214844 147.5625 C 577.96875 145.539062 555.796875 131.609375 533.546875 127.5625 C 511.300781 123.59375 489.128906 129.585938 466.882812 128.613281 C 444.636719 127.5625 422.464844 119.625 400.21875 109.734375 C 377.96875 99.847656 355.796875 88.164062 333.703125 93.105469 C 311.605469 98.125 289.582031 119.847656 267.484375 131.683594 C 245.390625 143.59375 223.21875 145.539062 200.96875 136.703125 C 178.722656 127.863281 156.550781 108.089844 134.304688 92.285156 C 112.058594 76.402344 89.886719 64.417969 67.640625 61.421875 C 45.390625 58.425781 23.21875 64.417969 12.058594 67.414062 L 0.972656 70.410156 Z M 0.972656 95.878906 " fill-opacity="1" fill-rule="nonzero"/></g><g clip-path="url(#57e0a18f4d)"><path fill="#665f93" d="M 0.972656 237.449219 L 12.058594 232.582031 C 23.21875 227.710938 45.390625 217.972656 67.640625 224.941406 C 89.886719 231.980469 112.058594 255.652344 134.304688 266.511719 C 156.550781 277.375 178.722656 275.425781 200.96875 272.429688 C 223.21875 269.433594 245.390625 265.390625 267.484375 262.394531 C 289.582031 259.398438 311.605469 257.449219 333.703125 250.558594 C 355.796875 243.667969 377.96875 231.980469 400.21875 232.957031 C 422.464844 233.929688 444.636719 247.710938 466.882812 260.519531 C 489.128906 273.40625 511.300781 285.390625 533.546875 285.390625 C 555.796875 285.390625 577.96875 273.40625 600.214844 260.519531 C 622.460938 247.710938 644.632812 233.929688 666.878906 227.113281 C 689.125 220.222656 711.296875 220.222656 733.542969 227.113281 C 755.792969 233.929688 777.964844 247.710938 800.058594 254.527344 C 822.15625 261.417969 844.179688 261.417969 866.277344 253.554688 C 888.375 245.6875 910.546875 229.960938 932.792969 220.070312 C 955.039062 210.257812 977.210938 206.214844 999.457031 208.238281 C 1021.703125 210.257812 1043.875 218.199219 1055.035156 222.242188 L 1066.121094 226.214844 L 1066.121094 141.570312 L 1055.035156 133.707031 C 1043.875 125.839844 1021.703125 110.109375 999.457031 108.089844 C 977.210938 106.140625 955.039062 117.824219 932.792969 123.742188 C 910.546875 129.585938 888.375 129.585938 866.277344 133.554688 C 844.179688 137.601562 822.15625 145.539062 800.058594 147.5625 C 777.964844 149.585938 755.792969 145.539062 733.542969 144.566406 C 711.296875 143.59375 689.125 145.539062 666.878906 152.433594 C 644.632812 159.324219 622.460938 171.007812 600.214844 170.035156 C 577.96875 169.0625 555.796875 155.277344 533.546875 152.28125 C 511.300781 149.285156 489.128906 157.078125 466.882812 157.078125 C 444.636719 157.078125 422.464844 149.285156 400.21875 139.472656 C 377.96875 129.585938 355.796875 117.601562 333.703125 122.46875 C 311.605469 127.339844 289.582031 149.0625 267.484375 160.898438 C 245.390625 172.804688 223.21875 174.753906 200.96875 165.914062 C 178.722656 157.078125 156.550781 137.300781 134.304688 120.597656 C 112.058594 103.894531 89.886719 90.109375 67.640625 86.289062 C 45.390625 82.394531 23.21875 88.386719 12.058594 91.382812 L 0.972656 94.378906 Z M 0.972656 237.449219 " fill-opacity="1" fill-rule="nonzero"/></g><g clip-path="url(#a53bb80d8a)"><path fill="#786495" d="M 0.972656 273.40625 L 12.058594 271.382812 C 23.21875 269.433594 45.390625 265.390625 67.640625 270.257812 C 89.886719 275.128906 112.058594 288.910156 134.304688 297.75 C 156.550781 306.585938 178.722656 310.632812 200.96875 308.757812 C 223.21875 306.886719 245.390625 299.097656 267.484375 294.226562 C 289.582031 289.359375 311.605469 287.410156 333.703125 281.417969 C 355.796875 275.425781 377.96875 265.390625 400.21875 265.390625 C 422.464844 265.390625 444.636719 275.425781 466.882812 287.261719 C 489.128906 299.097656 511.300781 312.878906 533.546875 317.75 C 555.796875 322.617188 577.96875 318.570312 600.214844 310.707031 C 622.460938 302.84375 644.632812 291.15625 666.878906 286.289062 C 689.125 281.417969 711.296875 283.367188 733.542969 289.285156 C 755.792969 295.125 777.964844 304.863281 800.058594 310.707031 C 822.15625 316.625 844.179688 318.570312 866.277344 311.753906 C 888.375 304.863281 910.546875 289.132812 932.792969 278.273438 C 955.039062 267.410156 977.210938 261.417969 999.457031 261.417969 C 1021.703125 261.417969 1043.875 267.410156 1055.035156 270.40625 L 1066.121094 273.40625 L 1066.121094 224.714844 L 1055.035156 220.746094 C 1043.875 216.699219 1021.703125 208.761719 999.457031 206.738281 C 977.210938 204.714844 955.039062 208.761719 932.792969 218.574219 C 910.546875 228.460938 888.375 244.191406 866.277344 252.054688 C 844.179688 259.921875 822.15625 259.921875 800.058594 253.03125 C 777.964844 246.214844 755.792969 232.429688 733.542969 225.613281 C 711.296875 218.722656 689.125 218.722656 666.878906 225.613281 C 644.632812 232.429688 622.460938 246.214844 600.214844 259.023438 C 577.96875 271.90625 555.796875 283.890625 533.546875 283.890625 C 511.300781 283.890625 489.128906 271.90625 466.882812 259.023438 C 444.636719 246.214844 422.464844 232.429688 400.21875 231.457031 C 377.96875 230.484375 355.796875 242.167969 333.703125 249.058594 C 311.605469 255.953125 289.582031 257.898438 267.484375 260.894531 C 245.390625 263.890625 223.21875 267.9375 200.96875 270.933594 C 178.722656 273.929688 156.550781 275.875 134.304688 265.015625 C 112.058594 254.152344 89.886719 230.484375 67.640625 223.441406 C 45.390625 216.476562 23.21875 226.214844 12.058594 231.082031 L 0.972656 235.953125 Z M 0.972656 273.40625 " fill-opacity="1" fill-rule="nonzero"/></g><g clip-path="url(#fc22a389c5)"><path fill="#896a96" d="M 0.972656 302.617188 L 12.058594 300.746094 C 23.21875 298.871094 45.390625 295.125 67.640625 301.121094 C 89.886719 307.113281 112.058594 322.84375 134.304688 332.730469 C 156.550781 342.542969 178.722656 346.585938 200.96875 344.5625 C 223.21875 342.542969 245.390625 334.601562 267.484375 327.5625 C 289.582031 320.59375 311.605469 314.601562 333.703125 307.710938 C 355.796875 300.894531 377.96875 293.105469 400.21875 295.125 C 422.464844 297.148438 444.636719 308.835938 466.882812 320.746094 C 489.128906 332.578125 511.300781 344.5625 533.546875 349.582031 C 555.796875 354.527344 577.96875 352.578125 600.214844 344.5625 C 622.460938 336.550781 644.632812 322.617188 666.878906 316.625 C 689.125 310.632812 711.296875 312.578125 733.542969 318.570312 C 755.792969 324.566406 777.964844 334.601562 800.058594 339.546875 C 822.15625 344.5625 844.179688 344.5625 866.277344 335.726562 C 888.375 326.8125 910.546875 309.132812 932.792969 298.273438 C 955.039062 287.410156 977.210938 283.367188 999.457031 284.414062 C 1021.703125 285.390625 1043.875 291.382812 1055.035156 294.378906 L 1066.121094 297.375 L 1066.121094 271.90625 L 1055.035156 268.910156 C 1043.875 265.914062 1021.703125 259.921875 999.457031 259.921875 C 977.210938 259.921875 955.039062 265.914062 932.792969 276.773438 C 910.546875 287.636719 888.375 303.367188 866.277344 310.257812 C 844.179688 317.074219 822.15625 315.125 800.058594 309.210938 C 777.964844 303.367188 755.792969 293.628906 733.542969 287.785156 C 711.296875 281.867188 689.125 279.921875 666.878906 284.789062 C 644.632812 289.660156 622.460938 301.34375 600.214844 309.210938 C 577.96875 317.074219 555.796875 321.117188 533.546875 316.25 C 511.300781 311.382812 489.128906 297.597656 466.882812 285.765625 C 444.636719 273.929688 422.464844 263.890625 400.21875 263.890625 C 377.96875 263.890625 355.796875 273.929688 333.703125 279.921875 C 311.605469 285.914062 289.582031 287.859375 267.484375 292.730469 C 245.390625 297.597656 223.21875 305.390625 200.96875 307.261719 C 178.722656 309.132812 156.550781 305.089844 134.304688 296.25 C 112.058594 287.410156 89.886719 273.628906 67.640625 268.761719 C 45.390625 263.890625 23.21875 267.9375 12.058594 269.882812 L 0.972656 271.90625 Z M 0.972656 302.617188 " fill-opacity="1" fill-rule="nonzero"/></g><g clip-path="url(#e3484e4a3d)"><path fill="#987097" d="M 0.972656 344.5625 L 12.058594 344.5625 C 23.21875 344.5625 45.390625 344.5625 67.640625 349.433594 C 89.886719 354.300781 112.058594 364.039062 134.304688 372.878906 C 156.550781 381.792969 178.722656 389.730469 200.96875 388.757812 C 223.21875 387.785156 245.390625 377.746094 267.484375 367.933594 C 289.582031 358.046875 311.605469 348.308594 333.703125 343.441406 C 355.796875 338.570312 377.96875 338.570312 400.21875 343.441406 C 422.464844 348.308594 444.636719 358.046875 466.882812 366.886719 C 489.128906 375.800781 511.300781 383.738281 533.546875 387.785156 C 555.796875 391.753906 577.96875 391.753906 600.214844 384.863281 C 622.460938 378.046875 644.632812 364.265625 666.878906 355.425781 C 689.125 346.585938 711.296875 342.542969 733.542969 345.464844 C 755.792969 348.308594 777.964844 358.046875 800.058594 365.914062 C 822.15625 373.777344 844.179688 379.769531 866.277344 372.878906 C 888.375 366.0625 910.546875 346.289062 932.792969 336.472656 C 955.039062 326.585938 977.210938 326.585938 999.457031 326.585938 C 1021.703125 326.585938 1043.875 326.585938 1055.035156 326.585938 L 1066.121094 326.585938 L 1066.121094 295.875 L 1055.035156 292.878906 C 1043.875 289.882812 1021.703125 283.890625 999.457031 282.917969 C 977.210938 281.867188 955.039062 285.914062 932.792969 296.773438 C 910.546875 307.636719 888.375 325.3125 866.277344 334.226562 C 844.179688 343.066406 822.15625 343.066406 800.058594 338.046875 C 777.964844 333.105469 755.792969 323.066406 733.542969 317.074219 C 711.296875 311.082031 689.125 309.132812 666.878906 315.125 C 644.632812 321.117188 622.460938 335.050781 600.214844 343.066406 C 577.96875 351.082031 555.796875 353.027344 533.546875 348.085938 C 511.300781 343.066406 489.128906 331.082031 466.882812 319.246094 C 444.636719 307.335938 422.464844 295.652344 400.21875 293.628906 C 377.96875 291.605469 355.796875 299.394531 333.703125 306.210938 C 311.605469 313.105469 289.582031 319.097656 267.484375 326.0625 C 245.390625 333.105469 223.21875 341.042969 200.96875 343.066406 C 178.722656 345.089844 156.550781 341.042969 134.304688 331.230469 C 112.058594 321.34375 89.886719 305.613281 67.640625 299.621094 C 45.390625 293.628906 23.21875 297.375 12.058594 299.246094 L 0.972656 301.121094 Z M 0.972656 344.5625 " fill-opacity="1" fill-rule="nonzero"/></g><g clip-path="url(#2fa83cb373)"><path fill="#a57899" d="M 0.972656 415.722656 L 12.058594 414.75 C 23.21875 413.703125 45.390625 411.753906 67.640625 414.601562 C 89.886719 417.445312 112.058594 425.238281 134.304688 431.078125 C 156.550781 436.921875 178.722656 440.96875 200.96875 438.046875 C 223.21875 435.199219 245.390625 425.460938 267.484375 419.621094 C 289.582031 413.703125 311.605469 411.753906 333.703125 410.707031 C 355.796875 409.730469 377.96875 409.730469 400.21875 412.726562 C 422.464844 415.722656 444.636719 421.71875 466.882812 425.613281 C 489.128906 429.433594 511.300781 431.230469 533.546875 432.054688 C 555.796875 432.953125 577.96875 432.953125 600.214844 428.082031 C 622.460938 423.214844 644.632812 413.476562 666.878906 408.609375 C 689.125 403.738281 711.296875 403.738281 733.542969 407.710938 C 755.792969 411.753906 777.964844 419.695312 800.058594 422.691406 C 822.15625 425.6875 844.179688 423.738281 866.277344 416.699219 C 888.375 409.730469 910.546875 397.746094 932.792969 392.726562 C 955.039062 387.785156 977.210938 389.730469 999.457031 388.757812 C 1021.703125 387.785156 1043.875 383.738281 1055.035156 381.792969 L 1066.121094 379.769531 L 1066.121094 325.089844 L 1055.035156 325.089844 C 1043.875 325.089844 1021.703125 325.089844 999.457031 325.089844 C 977.210938 325.089844 955.039062 325.089844 932.792969 334.976562 C 910.546875 344.789062 888.375 364.5625 866.277344 371.378906 C 844.179688 378.273438 822.15625 372.28125 800.058594 364.414062 C 777.964844 356.550781 755.792969 346.8125 733.542969 343.964844 C 711.296875 341.042969 689.125 345.089844 666.878906 353.925781 C 644.632812 362.765625 622.460938 376.550781 600.214844 383.367188 C 577.96875 390.257812 555.796875 390.257812 533.546875 386.285156 C 511.300781 382.242188 489.128906 374.300781 466.882812 365.386719 C 444.636719 356.550781 422.464844 346.8125 400.21875 341.941406 C 377.96875 337.074219 355.796875 337.074219 333.703125 341.941406 C 311.605469 346.8125 289.582031 356.550781 267.484375 366.4375 C 245.390625 376.25 223.21875 386.285156 200.96875 387.261719 C 178.722656 388.234375 156.550781 380.292969 134.304688 371.378906 C 112.058594 362.542969 89.886719 352.804688 67.640625 347.933594 C 45.390625 343.066406 23.21875 343.066406 12.058594 343.066406 L 0.972656 343.066406 Z M 0.972656 415.722656 " fill-opacity="1" fill-rule="nonzero"/></g><g clip-path="url(#5d10097d3f)"><path fill="#b1809a" d="M 0.972656 438.945312 L 12.058594 439.917969 C 23.21875 440.96875 45.390625 442.914062 67.640625 446.960938 C 89.886719 450.929688 112.058594 456.921875 134.304688 461.941406 C 156.550781 466.882812 178.722656 470.929688 200.96875 466.882812 C 223.21875 462.914062 245.390625 450.929688 267.484375 443.066406 C 289.582031 435.199219 311.605469 431.453125 333.703125 429.582031 C 355.796875 427.710938 377.96875 427.710938 400.21875 432.578125 C 422.464844 437.445312 444.636719 447.183594 466.882812 454.074219 C 489.128906 460.890625 511.300781 464.9375 533.546875 467.933594 C 555.796875 470.929688 577.96875 472.878906 600.214844 465.011719 C 622.460938 457.148438 644.632812 439.46875 666.878906 431.605469 C 689.125 423.738281 711.296875 425.6875 733.542969 432.578125 C 755.792969 439.46875 777.964844 451.15625 800.058594 455.050781 C 822.15625 458.945312 844.179688 454.898438 866.277344 448.082031 C 888.375 441.191406 910.546875 431.453125 932.792969 428.457031 C 955.039062 425.460938 977.210938 429.207031 999.457031 428.234375 C 1021.703125 427.183594 1043.875 421.492188 1055.035156 418.570312 L 1066.121094 415.722656 L 1066.121094 378.273438 L 1055.035156 380.292969 C 1043.875 382.242188 1021.703125 386.285156 999.457031 387.261719 C 977.210938 388.234375 955.039062 386.285156 932.792969 391.230469 C 910.546875 396.25 888.375 408.234375 866.277344 415.199219 C 844.179688 422.242188 822.15625 424.1875 800.058594 421.191406 C 777.964844 418.195312 755.792969 410.257812 733.542969 406.210938 C 711.296875 402.242188 689.125 402.242188 666.878906 407.109375 C 644.632812 411.980469 622.460938 421.71875 600.214844 426.585938 C 577.96875 431.453125 555.796875 431.453125 533.546875 430.554688 C 511.300781 429.730469 489.128906 427.933594 466.882812 424.113281 C 444.636719 420.21875 422.464844 414.226562 400.21875 411.230469 C 377.96875 408.234375 355.796875 408.234375 333.703125 409.207031 C 311.605469 410.257812 289.582031 412.203125 267.484375 418.121094 C 245.390625 423.964844 223.21875 433.703125 200.96875 436.546875 C 178.722656 439.46875 156.550781 435.425781 134.304688 429.582031 C 112.058594 423.738281 89.886719 415.949219 67.640625 413.101562 C 45.390625 410.257812 23.21875 412.203125 12.058594 413.253906 L 0.972656 414.226562 Z M 0.972656 438.945312 " fill-opacity="1" fill-rule="nonzero"/></g><g clip-path="url(#3cf92a0c6e)"><path fill="#bc889c" d="M 0.972656 522.089844 L 12.058594 522.089844 C 23.21875 522.089844 45.390625 522.089844 67.640625 520.066406 C 89.886719 518.121094 112.058594 514.074219 134.304688 514.074219 C 156.550781 514.074219 178.722656 518.121094 200.96875 516.097656 C 223.21875 514.074219 245.390625 506.136719 267.484375 505.085938 C 289.582031 504.113281 311.605469 510.105469 333.703125 513.101562 C 355.796875 516.097656 377.96875 516.097656 400.21875 516.097656 C 422.464844 516.097656 444.636719 516.097656 466.882812 516.097656 C 489.128906 516.097656 511.300781 516.097656 533.546875 518.121094 C 555.796875 520.066406 577.96875 524.113281 600.214844 522.089844 C 622.460938 520.066406 644.632812 512.128906 666.878906 510.105469 C 689.125 508.082031 711.296875 512.128906 733.542969 512.128906 C 755.792969 512.128906 777.964844 508.082031 800.058594 504.261719 C 822.15625 500.367188 844.179688 496.621094 866.277344 495.648438 C 888.375 494.601562 910.546875 496.398438 932.792969 499.242188 C 955.039062 502.089844 977.210938 506.136719 999.457031 508.082031 C 1021.703125 510.105469 1043.875 510.105469 1055.035156 510.105469 L 1066.121094 510.105469 L 1066.121094 414.226562 L 1055.035156 417.074219 C 1043.875 419.992188 1021.703125 425.6875 999.457031 426.734375 C 977.210938 427.710938 955.039062 423.964844 932.792969 426.960938 C 910.546875 429.957031 888.375 439.695312 866.277344 446.585938 C 844.179688 453.402344 822.15625 457.445312 800.058594 453.550781 C 777.964844 449.65625 755.792969 437.972656 733.542969 431.078125 C 711.296875 424.1875 689.125 422.242188 666.878906 430.105469 C 644.632812 437.972656 622.460938 455.648438 600.214844 463.515625 C 577.96875 471.378906 555.796875 469.429688 533.546875 466.433594 C 511.300781 463.4375 489.128906 459.394531 466.882812 452.578125 C 444.636719 445.6875 422.464844 435.949219 400.21875 431.078125 C 377.96875 426.210938 355.796875 426.210938 333.703125 428.082031 C 311.605469 429.957031 289.582031 433.703125 267.484375 441.566406 C 245.390625 449.433594 223.21875 461.417969 200.96875 465.386719 C 178.722656 469.429688 156.550781 465.386719 134.304688 460.441406 C 112.058594 455.425781 89.886719 449.433594 67.640625 445.460938 C 45.390625 441.417969 23.21875 439.46875 12.058594 438.421875 L 0.972656 437.445312 Z M 0.972656 522.089844 " fill-opacity="1" fill-rule="nonzero"/></g><g clip-path="url(#f8a8ff4976)"><path fill="#c5919e" d="M 0.972656 534.074219 L 12.058594 537.070312 C 23.21875 540.066406 45.390625 546.058594 67.640625 545.085938 C 89.886719 544.039062 112.058594 536.097656 134.304688 533.101562 C 156.550781 530.105469 178.722656 532.050781 200.96875 532.050781 C 223.21875 532.050781 245.390625 530.105469 267.484375 532.050781 C 289.582031 534.074219 311.605469 540.066406 333.703125 543.0625 C 355.796875 546.058594 377.96875 546.058594 400.21875 545.085938 C 422.464844 544.039062 444.636719 542.089844 466.882812 541.039062 C 489.128906 540.066406 511.300781 540.066406 533.546875 540.066406 C 555.796875 540.066406 577.96875 540.066406 600.214844 537.070312 C 622.460938 534.074219 644.632812 528.082031 666.878906 529.054688 C 689.125 530.105469 711.296875 538.042969 733.542969 538.042969 C 755.792969 538.042969 777.964844 530.105469 800.058594 526.058594 C 822.15625 522.089844 844.179688 522.089844 866.277344 522.089844 C 888.375 522.089844 910.546875 522.089844 932.792969 524.113281 C 955.039062 526.058594 977.210938 530.105469 999.457031 532.050781 C 1021.703125 534.074219 1043.875 534.074219 1055.035156 534.074219 L 1066.121094 534.074219 L 1066.121094 508.605469 L 1055.035156 508.605469 C 1043.875 508.605469 1021.703125 508.605469 999.457031 506.585938 C 977.210938 504.636719 955.039062 500.59375 932.792969 497.746094 C 910.546875 494.898438 888.375 493.101562 866.277344 494.148438 C 844.179688 495.125 822.15625 498.871094 800.058594 502.765625 C 777.964844 506.585938 755.792969 510.628906 733.542969 510.628906 C 711.296875 510.628906 689.125 506.585938 666.878906 508.605469 C 644.632812 510.628906 622.460938 518.570312 600.214844 520.59375 C 577.96875 522.613281 555.796875 518.570312 533.546875 516.621094 C 511.300781 514.597656 489.128906 514.597656 466.882812 514.597656 C 444.636719 514.597656 422.464844 514.597656 400.21875 514.597656 C 377.96875 514.597656 355.796875 514.597656 333.703125 511.601562 C 311.605469 508.605469 289.582031 502.613281 267.484375 503.589844 C 245.390625 504.636719 223.21875 512.578125 200.96875 514.597656 C 178.722656 516.621094 156.550781 512.578125 134.304688 512.578125 C 112.058594 512.578125 89.886719 516.621094 67.640625 518.570312 C 45.390625 520.59375 23.21875 520.59375 12.058594 520.59375 L 0.972656 520.59375 Z M 0.972656 534.074219 " fill-opacity="1" fill-rule="nonzero"/></g><g clip-path="url(#1f956c6a50)"><path fill="#cd9ba1" d="M 0.972656 552.050781 L 12.058594 554.898438 C 23.21875 557.820312 45.390625 563.511719 67.640625 564.5625 C 89.886719 565.535156 112.058594 561.789062 134.304688 559.917969 C 156.550781 558.042969 178.722656 558.042969 200.96875 557.070312 C 223.21875 556.023438 245.390625 554.074219 267.484375 556.921875 C 289.582031 559.765625 311.605469 567.558594 333.703125 569.429688 C 355.796875 571.300781 377.96875 567.257812 400.21875 567.257812 C 422.464844 567.257812 444.636719 571.300781 466.882812 570.402344 C 489.128906 569.503906 511.300781 563.8125 533.546875 562.761719 C 555.796875 561.789062 577.96875 565.535156 600.214844 563.511719 C 622.460938 561.566406 644.632812 553.773438 666.878906 552.800781 C 689.125 551.828125 711.296875 557.519531 733.542969 558.570312 C 755.792969 559.542969 777.964844 555.796875 800.058594 553.925781 C 822.15625 552.050781 844.179688 552.050781 866.277344 553.027344 C 888.375 554.074219 910.546875 556.023438 932.792969 557.070312 C 955.039062 558.042969 977.210938 558.042969 999.457031 558.042969 C 1021.703125 558.042969 1043.875 558.042969 1055.035156 558.042969 L 1066.121094 558.042969 L 1066.121094 532.578125 L 1055.035156 532.578125 C 1043.875 532.578125 1021.703125 532.578125 999.457031 530.554688 C 977.210938 528.605469 955.039062 524.5625 932.792969 522.613281 C 910.546875 520.59375 888.375 520.59375 866.277344 520.59375 C 844.179688 520.59375 822.15625 520.59375 800.058594 524.5625 C 777.964844 528.605469 755.792969 536.546875 733.542969 536.546875 C 711.296875 536.546875 689.125 528.605469 666.878906 527.558594 C 644.632812 526.585938 622.460938 532.578125 600.214844 535.574219 C 577.96875 538.570312 555.796875 538.570312 533.546875 538.570312 C 511.300781 538.570312 489.128906 538.570312 466.882812 539.542969 C 444.636719 540.589844 422.464844 542.539062 400.21875 543.585938 C 377.96875 544.5625 355.796875 544.5625 333.703125 541.566406 C 311.605469 538.570312 289.582031 532.578125 267.484375 530.554688 C 245.390625 528.605469 223.21875 530.554688 200.96875 530.554688 C 178.722656 530.554688 156.550781 528.605469 134.304688 531.601562 C 112.058594 534.597656 89.886719 542.539062 67.640625 543.585938 C 45.390625 544.5625 23.21875 538.570312 12.058594 535.574219 L 0.972656 532.578125 Z M 0.972656 552.050781 " fill-opacity="1" fill-rule="nonzero"/></g><g clip-path="url(#2ce8d6be50)"><path fill="#d4a5a5" d="M 0.972656 593.25 L 12.058594 593.25 C 23.21875 593.25 45.390625 593.25 67.640625 593.25 C 89.886719 593.25 112.058594 593.25 134.304688 593.25 C 156.550781 593.25 178.722656 593.25 200.96875 593.25 C 223.21875 593.25 245.390625 593.25 267.484375 593.25 C 289.582031 593.25 311.605469 593.25 333.703125 593.25 C 355.796875 593.25 377.96875 593.25 400.21875 593.25 C 422.464844 593.25 444.636719 593.25 466.882812 593.25 C 489.128906 593.25 511.300781 593.25 533.546875 593.25 C 555.796875 593.25 577.96875 593.25 600.214844 593.25 C 622.460938 593.25 644.632812 593.25 666.878906 593.25 C 689.125 593.25 711.296875 593.25 733.542969 593.25 C 755.792969 593.25 777.964844 593.25 800.058594 593.25 C 822.15625 593.25 844.179688 593.25 866.277344 593.25 C 888.375 593.25 910.546875 593.25 932.792969 593.25 C 955.039062 593.25 977.210938 593.25 999.457031 593.25 C 1021.703125 593.25 1043.875 593.25 1055.035156 593.25 L 1066.121094 593.25 L 1066.121094 556.546875 L 1055.035156 556.546875 C 1043.875 556.546875 1021.703125 556.546875 999.457031 556.546875 C 977.210938 556.546875 955.039062 556.546875 932.792969 555.574219 C 910.546875 554.523438 888.375 552.578125 866.277344 551.527344 C 844.179688 550.554688 822.15625 550.554688 800.058594 552.425781 C 777.964844 554.300781 755.792969 558.042969 733.542969 557.070312 C 711.296875 556.023438 689.125 550.328125 666.878906 551.304688 C 644.632812 552.277344 622.460938 560.066406 600.214844 562.015625 C 577.96875 564.035156 555.796875 560.292969 533.546875 561.265625 C 511.300781 562.3125 489.128906 568.007812 466.882812 568.90625 C 444.636719 569.804688 422.464844 565.757812 400.21875 565.757812 C 377.96875 565.757812 355.796875 569.804688 333.703125 567.933594 C 311.605469 566.058594 289.582031 558.269531 267.484375 555.421875 C 245.390625 552.578125 223.21875 554.523438 200.96875 555.574219 C 178.722656 556.546875 156.550781 556.546875 134.304688 558.417969 C 112.058594 560.292969 89.886719 564.035156 67.640625 563.0625 C 45.390625 562.015625 23.21875 556.320312 12.058594 553.398438 L 0.972656 550.554688 Z M 0.972656 593.25 " fill-opacity="1" fill-rule="nonzero"/></g><g clip-path="url(#0e92197620)"><path fill="#35558c" d="M 2130.527344 71.910156 L 2119.441406 68.914062 C 2108.28125 65.917969 2086.109375 59.925781 2063.863281 62.921875 C 2041.613281 65.917969 2019.441406 77.902344 1997.195312 93.78125 C 1974.949219 109.585938 1952.777344 129.363281 1930.53125 138.199219 C 1908.285156 147.039062 1886.113281 145.089844 1864.015625 133.179688 C 1841.917969 121.347656 1819.894531 99.625 1797.800781 94.605469 C 1775.703125 89.660156 1753.53125 101.347656 1731.285156 111.234375 C 1709.035156 121.121094 1686.863281 129.0625 1664.617188 130.109375 C 1642.371094 131.085938 1620.199219 125.09375 1597.953125 129.0625 C 1575.707031 133.105469 1553.535156 147.039062 1531.289062 149.0625 C 1509.039062 151.085938 1486.867188 141.046875 1464.621094 134.082031 C 1442.375 127.113281 1420.203125 123.070312 1397.957031 124.117188 C 1375.710938 125.09375 1353.539062 131.085938 1331.441406 129.0625 C 1309.34375 127.113281 1287.320312 117.078125 1265.222656 111.085938 C 1243.128906 105.09375 1220.957031 103.144531 1198.707031 96.253906 C 1176.460938 89.363281 1154.289062 77.675781 1132.042969 82.621094 C 1109.796875 87.640625 1087.625 109.363281 1076.464844 120.222656 L 1065.378906 131.085938 L 1065.378906 0 L 1076.464844 0 C 1087.625 0 1109.796875 0 1132.042969 0 C 1154.289062 0 1176.460938 0 1198.707031 0 C 1220.957031 0 1243.128906 0 1265.222656 0 C 1287.320312 0 1309.34375 0 1331.441406 0 C 1353.539062 0 1375.710938 0 1397.957031 0 C 1420.203125 0 1442.375 0 1464.621094 0 C 1486.867188 0 1509.039062 0 1531.289062 0 C 1553.535156 0 1575.707031 0 1597.953125 0 C 1620.199219 0 1642.371094 0 1664.617188 0 C 1686.863281 0 1709.035156 0 1731.285156 0 C 1753.53125 0 1775.703125 0 1797.800781 0 C 1819.894531 0 1841.917969 0 1864.015625 0 C 1886.113281 0 1908.285156 0 1930.53125 0 C 1952.777344 0 1974.949219 0 1997.195312 0 C 2019.441406 0 2041.613281 0 2063.863281 0 C 2086.109375 0 2108.28125 0 2119.441406 0 L 2130.527344 0 Z M 2130.527344 71.910156 " fill-opacity="1" fill-rule="nonzero"/></g><g clip-path="url(#0ece5e4eec)"><path fill="#505a90" d="M 2130.527344 95.878906 L 2119.441406 92.882812 C 2108.28125 89.886719 2086.109375 83.894531 2063.863281 87.789062 C 2041.613281 91.609375 2019.441406 105.390625 1997.195312 122.09375 C 1974.949219 138.800781 1952.777344 158.574219 1930.53125 167.414062 C 1908.285156 176.253906 1886.113281 174.304688 1864.015625 162.394531 C 1841.917969 150.558594 1819.894531 128.835938 1797.800781 123.96875 C 1775.703125 119.097656 1753.53125 131.085938 1731.285156 140.972656 C 1709.035156 150.785156 1686.863281 158.574219 1664.617188 158.574219 C 1642.371094 158.574219 1620.199219 150.785156 1597.953125 153.78125 C 1575.707031 156.777344 1553.535156 170.558594 1531.289062 171.53125 C 1509.039062 172.507812 1486.867188 160.820312 1464.621094 153.929688 C 1442.375 147.039062 1420.203125 145.089844 1397.957031 146.066406 C 1375.710938 147.039062 1353.539062 151.085938 1331.441406 149.0625 C 1309.34375 147.039062 1287.320312 139.097656 1265.222656 135.054688 C 1243.128906 131.085938 1220.957031 131.085938 1198.707031 125.242188 C 1176.460938 119.324219 1154.289062 107.640625 1132.042969 109.585938 C 1109.796875 111.609375 1087.625 127.339844 1076.464844 135.203125 L 1065.378906 143.070312 L 1065.378906 129.585938 L 1076.464844 118.726562 C 1087.625 107.863281 1109.796875 86.140625 1132.042969 81.121094 C 1154.289062 76.179688 1176.460938 87.863281 1198.707031 94.753906 C 1220.957031 101.648438 1243.128906 103.59375 1265.222656 109.585938 C 1287.320312 115.578125 1309.34375 125.617188 1331.441406 127.5625 C 1353.539062 129.585938 1375.710938 123.59375 1397.957031 122.621094 C 1420.203125 121.570312 1442.375 125.617188 1464.621094 132.582031 C 1486.867188 139.546875 1509.039062 149.585938 1531.289062 147.5625 C 1553.535156 145.539062 1575.707031 131.609375 1597.953125 127.5625 C 1620.199219 123.59375 1642.371094 129.585938 1664.617188 128.613281 C 1686.863281 127.5625 1709.035156 119.625 1731.285156 109.734375 C 1753.53125 99.847656 1775.703125 88.164062 1797.800781 93.105469 C 1819.894531 98.125 1841.917969 119.847656 1864.015625 131.683594 C 1886.113281 143.59375 1908.285156 145.539062 1930.53125 136.703125 C 1952.777344 127.863281 1974.949219 108.089844 1997.195312 92.285156 C 2019.441406 76.402344 2041.613281 64.417969 2063.863281 61.421875 C 2086.109375 58.425781 2108.28125 64.417969 2119.441406 67.414062 L 2130.527344 70.410156 Z M 2130.527344 95.878906 " fill-opacity="1" fill-rule="nonzero"/></g><g clip-path="url(#fe74574e6e)"><path fill="#665f93" d="M 2130.527344 237.449219 L 2119.441406 232.582031 C 2108.28125 227.710938 2086.109375 217.972656 2063.863281 224.941406 C 2041.613281 231.980469 2019.441406 255.652344 1997.195312 266.511719 C 1974.949219 277.375 1952.777344 275.425781 1930.53125 272.429688 C 1908.285156 269.433594 1886.113281 265.390625 1864.015625 262.394531 C 1841.917969 259.398438 1819.894531 257.449219 1797.800781 250.558594 C 1775.703125 243.667969 1753.53125 231.980469 1731.285156 232.957031 C 1709.035156 233.929688 1686.863281 247.710938 1664.617188 260.519531 C 1642.371094 273.40625 1620.199219 285.390625 1597.953125 285.390625 C 1575.707031 285.390625 1553.535156 273.40625 1531.289062 260.519531 C 1509.039062 247.710938 1486.867188 233.929688 1464.621094 227.113281 C 1442.375 220.222656 1420.203125 220.222656 1397.957031 227.113281 C 1375.710938 233.929688 1353.539062 247.710938 1331.441406 254.527344 C 1309.34375 261.417969 1287.320312 261.417969 1265.222656 253.554688 C 1243.128906 245.6875 1220.957031 229.960938 1198.707031 220.070312 C 1176.460938 210.257812 1154.289062 206.214844 1132.042969 208.238281 C 1109.796875 210.257812 1087.625 218.199219 1076.464844 222.242188 L 1065.378906 226.214844 L 1065.378906 141.570312 L 1076.464844 133.707031 C 1087.625 125.839844 1109.796875 110.109375 1132.042969 108.089844 C 1154.289062 106.140625 1176.460938 117.824219 1198.707031 123.742188 C 1220.957031 129.585938 1243.128906 129.585938 1265.222656 133.554688 C 1287.320312 137.601562 1309.34375 145.539062 1331.441406 147.5625 C 1353.539062 149.585938 1375.710938 145.539062 1397.957031 144.566406 C 1420.203125 143.59375 1442.375 145.539062 1464.621094 152.433594 C 1486.867188 159.324219 1509.039062 171.007812 1531.289062 170.035156 C 1553.535156 169.0625 1575.707031 155.277344 1597.953125 152.28125 C 1620.199219 149.285156 1642.371094 157.078125 1664.617188 157.078125 C 1686.863281 157.078125 1709.035156 149.285156 1731.285156 139.472656 C 1753.53125 129.585938 1775.703125 117.601562 1797.800781 122.46875 C 1819.894531 127.339844 1841.917969 149.0625 1864.015625 160.898438 C 1886.113281 172.804688 1908.285156 174.753906 1930.53125 165.914062 C 1952.777344 157.078125 1974.949219 137.300781 1997.195312 120.597656 C 2019.441406 103.894531 2041.613281 90.109375 2063.863281 86.289062 C 2086.109375 82.394531 2108.28125 88.386719 2119.441406 91.382812 L 2130.527344 94.378906 Z M 2130.527344 237.449219 " fill-opacity="1" fill-rule="nonzero"/></g><g clip-path="url(#71ea000fd1)"><path fill="#786495" d="M 2130.527344 273.40625 L 2119.441406 271.382812 C 2108.28125 269.433594 2086.109375 265.390625 2063.863281 270.257812 C 2041.613281 275.128906 2019.441406 288.910156 1997.195312 297.75 C 1974.949219 306.585938 1952.777344 310.632812 1930.53125 308.757812 C 1908.285156 306.886719 1886.113281 299.097656 1864.015625 294.226562 C 1841.917969 289.359375 1819.894531 287.410156 1797.800781 281.417969 C 1775.703125 275.425781 1753.53125 265.390625 1731.285156 265.390625 C 1709.035156 265.390625 1686.863281 275.425781 1664.617188 287.261719 C 1642.371094 299.097656 1620.199219 312.878906 1597.953125 317.75 C 1575.707031 322.617188 1553.535156 318.570312 1531.289062 310.707031 C 1509.039062 302.84375 1486.867188 291.15625 1464.621094 286.289062 C 1442.375 281.417969 1420.203125 283.367188 1397.957031 289.285156 C 1375.710938 295.125 1353.539062 304.863281 1331.441406 310.707031 C 1309.34375 316.625 1287.320312 318.570312 1265.222656 311.753906 C 1243.128906 304.863281 1220.957031 289.132812 1198.707031 278.273438 C 1176.460938 267.410156 1154.289062 261.417969 1132.042969 261.417969 C 1109.796875 261.417969 1087.625 267.410156 1076.464844 270.40625 L 1065.378906 273.40625 L 1065.378906 224.714844 L 1076.464844 220.746094 C 1087.625 216.699219 1109.796875 208.761719 1132.042969 206.738281 C 1154.289062 204.714844 1176.460938 208.761719 1198.707031 218.574219 C 1220.957031 228.460938 1243.128906 244.191406 1265.222656 252.054688 C 1287.320312 259.921875 1309.34375 259.921875 1331.441406 253.03125 C 1353.539062 246.214844 1375.710938 232.429688 1397.957031 225.613281 C 1420.203125 218.722656 1442.375 218.722656 1464.621094 225.613281 C 1486.867188 232.429688 1509.039062 246.214844 1531.289062 259.023438 C 1553.535156 271.90625 1575.707031 283.890625 1597.953125 283.890625 C 1620.199219 283.890625 1642.371094 271.90625 1664.617188 259.023438 C 1686.863281 246.214844 1709.035156 232.429688 1731.285156 231.457031 C 1753.53125 230.484375 1775.703125 242.167969 1797.800781 249.058594 C 1819.894531 255.953125 1841.917969 257.898438 1864.015625 260.894531 C 1886.113281 263.890625 1908.285156 267.9375 1930.53125 270.933594 C 1952.777344 273.929688 1974.949219 275.875 1997.195312 265.015625 C 2019.441406 254.152344 2041.613281 230.484375 2063.863281 223.441406 C 2086.109375 216.476562 2108.28125 226.214844 2119.441406 231.082031 L 2130.527344 235.953125 Z M 2130.527344 273.40625 " fill-opacity="1" fill-rule="nonzero"/></g><g clip-path="url(#558b753674)"><path fill="#896a96" d="M 2130.527344 302.617188 L 2119.441406 300.746094 C 2108.28125 298.871094 2086.109375 295.125 2063.863281 301.121094 C 2041.613281 307.113281 2019.441406 322.84375 1997.195312 332.730469 C 1974.949219 342.542969 1952.777344 346.585938 1930.53125 344.5625 C 1908.285156 342.542969 1886.113281 334.601562 1864.015625 327.5625 C 1841.917969 320.59375 1819.894531 314.601562 1797.800781 307.710938 C 1775.703125 300.894531 1753.53125 293.105469 1731.285156 295.125 C 1709.035156 297.148438 1686.863281 308.835938 1664.617188 320.746094 C 1642.371094 332.578125 1620.199219 344.5625 1597.953125 349.582031 C 1575.707031 354.527344 1553.535156 352.578125 1531.289062 344.5625 C 1509.039062 336.550781 1486.867188 322.617188 1464.621094 316.625 C 1442.375 310.632812 1420.203125 312.578125 1397.957031 318.570312 C 1375.710938 324.566406 1353.539062 334.601562 1331.441406 339.546875 C 1309.34375 344.5625 1287.320312 344.5625 1265.222656 335.726562 C 1243.128906 326.8125 1220.957031 309.132812 1198.707031 298.273438 C 1176.460938 287.410156 1154.289062 283.367188 1132.042969 284.414062 C 1109.796875 285.390625 1087.625 291.382812 1076.464844 294.378906 L 1065.378906 297.375 L 1065.378906 271.90625 L 1076.464844 268.910156 C 1087.625 265.914062 1109.796875 259.921875 1132.042969 259.921875 C 1154.289062 259.921875 1176.460938 265.914062 1198.707031 276.773438 C 1220.957031 287.636719 1243.128906 303.367188 1265.222656 310.257812 C 1287.320312 317.074219 1309.34375 315.125 1331.441406 309.210938 C 1353.539062 303.367188 1375.710938 293.628906 1397.957031 287.785156 C 1420.203125 281.867188 1442.375 279.921875 1464.621094 284.789062 C 1486.867188 289.660156 1509.039062 301.34375 1531.289062 309.210938 C 1553.535156 317.074219 1575.707031 321.117188 1597.953125 316.25 C 1620.199219 311.382812 1642.371094 297.597656 1664.617188 285.765625 C 1686.863281 273.929688 1709.035156 263.890625 1731.285156 263.890625 C 1753.53125 263.890625 1775.703125 273.929688 1797.800781 279.921875 C 1819.894531 285.914062 1841.917969 287.859375 1864.015625 292.730469 C 1886.113281 297.597656 1908.285156 305.390625 1930.53125 307.261719 C 1952.777344 309.132812 1974.949219 305.089844 1997.195312 296.25 C 2019.441406 287.410156 2041.613281 273.628906 2063.863281 268.761719 C 2086.109375 263.890625 2108.28125 267.9375 2119.441406 269.882812 L 2130.527344 271.90625 Z M 2130.527344 302.617188 " fill-opacity="1" fill-rule="nonzero"/></g><g clip-path="url(#9baf725ae7)"><path fill="#987097" d="M 2130.527344 344.5625 L 2119.441406 344.5625 C 2108.28125 344.5625 2086.109375 344.5625 2063.863281 349.433594 C 2041.613281 354.300781 2019.441406 364.039062 1997.195312 372.878906 C 1974.949219 381.792969 1952.777344 389.730469 1930.53125 388.757812 C 1908.285156 387.785156 1886.113281 377.746094 1864.015625 367.933594 C 1841.917969 358.046875 1819.894531 348.308594 1797.800781 343.441406 C 1775.703125 338.570312 1753.53125 338.570312 1731.285156 343.441406 C 1709.035156 348.308594 1686.863281 358.046875 1664.617188 366.886719 C 1642.371094 375.800781 1620.199219 383.738281 1597.953125 387.785156 C 1575.707031 391.753906 1553.535156 391.753906 1531.289062 384.863281 C 1509.039062 378.046875 1486.867188 364.265625 1464.621094 355.425781 C 1442.375 346.585938 1420.203125 342.542969 1397.957031 345.464844 C 1375.710938 348.308594 1353.539062 358.046875 1331.441406 365.914062 C 1309.34375 373.777344 1287.320312 379.769531 1265.222656 372.878906 C 1243.128906 366.0625 1220.957031 346.289062 1198.707031 336.472656 C 1176.460938 326.585938 1154.289062 326.585938 1132.042969 326.585938 C 1109.796875 326.585938 1087.625 326.585938 1076.464844 326.585938 L 1065.378906 326.585938 L 1065.378906 295.875 L 1076.464844 292.878906 C 1087.625 289.882812 1109.796875 283.890625 1132.042969 282.917969 C 1154.289062 281.867188 1176.460938 285.914062 1198.707031 296.773438 C 1220.957031 307.636719 1243.128906 325.3125 1265.222656 334.226562 C 1287.320312 343.066406 1309.34375 343.066406 1331.441406 338.046875 C 1353.539062 333.105469 1375.710938 323.066406 1397.957031 317.074219 C 1420.203125 311.082031 1442.375 309.132812 1464.621094 315.125 C 1486.867188 321.117188 1509.039062 335.050781 1531.289062 343.066406 C 1553.535156 351.082031 1575.707031 353.027344 1597.953125 348.085938 C 1620.199219 343.066406 1642.371094 331.082031 1664.617188 319.246094 C 1686.863281 307.335938 1709.035156 295.652344 1731.285156 293.628906 C 1753.53125 291.605469 1775.703125 299.394531 1797.800781 306.210938 C 1819.894531 313.105469 1841.917969 319.097656 1864.015625 326.0625 C 1886.113281 333.105469 1908.285156 341.042969 1930.53125 343.066406 C 1952.777344 345.089844 1974.949219 341.042969 1997.195312 331.230469 C 2019.441406 321.34375 2041.613281 305.613281 2063.863281 299.621094 C 2086.109375 293.628906 2108.28125 297.375 2119.441406 299.246094 L 2130.527344 301.121094 Z M 2130.527344 344.5625 " fill-opacity="1" fill-rule="nonzero"/></g><g clip-path="url(#eb76c2b0c3)"><path fill="#a57899" d="M 2130.527344 415.722656 L 2119.441406 414.75 C 2108.28125 413.703125 2086.109375 411.753906 2063.863281 414.601562 C 2041.613281 417.445312 2019.441406 425.238281 1997.195312 431.078125 C 1974.949219 436.921875 1952.777344 440.96875 1930.53125 438.046875 C 1908.285156 435.199219 1886.113281 425.460938 1864.015625 419.621094 C 1841.917969 413.703125 1819.894531 411.753906 1797.800781 410.707031 C 1775.703125 409.730469 1753.53125 409.730469 1731.285156 412.726562 C 1709.035156 415.722656 1686.863281 421.71875 1664.617188 425.613281 C 1642.371094 429.433594 1620.199219 431.230469 1597.953125 432.054688 C 1575.707031 432.953125 1553.535156 432.953125 1531.289062 428.082031 C 1509.039062 423.214844 1486.867188 413.476562 1464.621094 408.609375 C 1442.375 403.738281 1420.203125 403.738281 1397.957031 407.710938 C 1375.710938 411.753906 1353.539062 419.695312 1331.441406 422.691406 C 1309.34375 425.6875 1287.320312 423.738281 1265.222656 416.699219 C 1243.128906 409.730469 1220.957031 397.746094 1198.707031 392.726562 C 1176.460938 387.785156 1154.289062 389.730469 1132.042969 388.757812 C 1109.796875 387.785156 1087.625 383.738281 1076.464844 381.792969 L 1065.378906 379.769531 L 1065.378906 325.089844 L 1076.464844 325.089844 C 1087.625 325.089844 1109.796875 325.089844 1132.042969 325.089844 C 1154.289062 325.089844 1176.460938 325.089844 1198.707031 334.976562 C 1220.957031 344.789062 1243.128906 364.5625 1265.222656 371.378906 C 1287.320312 378.273438 1309.34375 372.28125 1331.441406 364.414062 C 1353.539062 356.550781 1375.710938 346.8125 1397.957031 343.964844 C 1420.203125 341.042969 1442.375 345.089844 1464.621094 353.925781 C 1486.867188 362.765625 1509.039062 376.550781 1531.289062 383.367188 C 1553.535156 390.257812 1575.707031 390.257812 1597.953125 386.285156 C 1620.199219 382.242188 1642.371094 374.300781 1664.617188 365.386719 C 1686.863281 356.550781 1709.035156 346.8125 1731.285156 341.941406 C 1753.53125 337.074219 1775.703125 337.074219 1797.800781 341.941406 C 1819.894531 346.8125 1841.917969 356.550781 1864.015625 366.4375 C 1886.113281 376.25 1908.285156 386.285156 1930.53125 387.261719 C 1952.777344 388.234375 1974.949219 380.292969 1997.195312 371.378906 C 2019.441406 362.542969 2041.613281 352.804688 2063.863281 347.933594 C 2086.109375 343.066406 2108.28125 343.066406 2119.441406 343.066406 L 2130.527344 343.066406 Z M 2130.527344 415.722656 " fill-opacity="1" fill-rule="nonzero"/></g><g clip-path="url(#81a3d9183f)"><path fill="#b1809a" d="M 2130.527344 438.945312 L 2119.441406 439.917969 C 2108.28125 440.96875 2086.109375 442.914062 2063.863281 446.960938 C 2041.613281 450.929688 2019.441406 456.921875 1997.195312 461.941406 C 1974.949219 466.882812 1952.777344 470.929688 1930.53125 466.882812 C 1908.285156 462.914062 1886.113281 450.929688 1864.015625 443.066406 C 1841.917969 435.199219 1819.894531 431.453125 1797.800781 429.582031 C 1775.703125 427.710938 1753.53125 427.710938 1731.285156 432.578125 C 1709.035156 437.445312 1686.863281 447.183594 1664.617188 454.074219 C 1642.371094 460.890625 1620.199219 464.9375 1597.953125 467.933594 C 1575.707031 470.929688 1553.535156 472.878906 1531.289062 465.011719 C 1509.039062 457.148438 1486.867188 439.46875 1464.621094 431.605469 C 1442.375 423.738281 1420.203125 425.6875 1397.957031 432.578125 C 1375.710938 439.46875 1353.539062 451.15625 1331.441406 455.050781 C 1309.34375 458.945312 1287.320312 454.898438 1265.222656 448.082031 C 1243.128906 441.191406 1220.957031 431.453125 1198.707031 428.457031 C 1176.460938 425.460938 1154.289062 429.207031 1132.042969 428.234375 C 1109.796875 427.183594 1087.625 421.492188 1076.464844 418.570312 L 1065.378906 415.722656 L 1065.378906 378.273438 L 1076.464844 380.292969 C 1087.625 382.242188 1109.796875 386.285156 1132.042969 387.261719 C 1154.289062 388.234375 1176.460938 386.285156 1198.707031 391.230469 C 1220.957031 396.25 1243.128906 408.234375 1265.222656 415.199219 C 1287.320312 422.242188 1309.34375 424.1875 1331.441406 421.191406 C 1353.539062 418.195312 1375.710938 410.257812 1397.957031 406.210938 C 1420.203125 402.242188 1442.375 402.242188 1464.621094 407.109375 C 1486.867188 411.980469 1509.039062 421.71875 1531.289062 426.585938 C 1553.535156 431.453125 1575.707031 431.453125 1597.953125 430.554688 C 1620.199219 429.730469 1642.371094 427.933594 1664.617188 424.113281 C 1686.863281 420.21875 1709.035156 414.226562 1731.285156 411.230469 C 1753.53125 408.234375 1775.703125 408.234375 1797.800781 409.207031 C 1819.894531 410.257812 1841.917969 412.203125 1864.015625 418.121094 C 1886.113281 423.964844 1908.285156 433.703125 1930.53125 436.546875 C 1952.777344 439.46875 1974.949219 435.425781 1997.195312 429.582031 C 2019.441406 423.738281 2041.613281 415.949219 2063.863281 413.101562 C 2086.109375 410.257812 2108.28125 412.203125 2119.441406 413.253906 L 2130.527344 414.226562 Z M 2130.527344 438.945312 " fill-opacity="1" fill-rule="nonzero"/></g><g clip-path="url(#bde9cb213d)"><path fill="#bc889c" d="M 2130.527344 522.089844 L 2119.441406 522.089844 C 2108.28125 522.089844 2086.109375 522.089844 2063.863281 520.066406 C 2041.613281 518.121094 2019.441406 514.074219 1997.195312 514.074219 C 1974.949219 514.074219 1952.777344 518.121094 1930.53125 516.097656 C 1908.285156 514.074219 1886.113281 506.136719 1864.015625 505.085938 C 1841.917969 504.113281 1819.894531 510.105469 1797.800781 513.101562 C 1775.703125 516.097656 1753.53125 516.097656 1731.285156 516.097656 C 1709.035156 516.097656 1686.863281 516.097656 1664.617188 516.097656 C 1642.371094 516.097656 1620.199219 516.097656 1597.953125 518.121094 C 1575.707031 520.066406 1553.535156 524.113281 1531.289062 522.089844 C 1509.039062 520.066406 1486.867188 512.128906 1464.621094 510.105469 C 1442.375 508.082031 1420.203125 512.128906 1397.957031 512.128906 C 1375.710938 512.128906 1353.539062 508.082031 1331.441406 504.261719 C 1309.34375 500.367188 1287.320312 496.621094 1265.222656 495.648438 C 1243.128906 494.601562 1220.957031 496.398438 1198.707031 499.242188 C 1176.460938 502.089844 1154.289062 506.136719 1132.042969 508.082031 C 1109.796875 510.105469 1087.625 510.105469 1076.464844 510.105469 L 1065.378906 510.105469 L 1065.378906 414.226562 L 1076.464844 417.074219 C 1087.625 419.992188 1109.796875 425.6875 1132.042969 426.734375 C 1154.289062 427.710938 1176.460938 423.964844 1198.707031 426.960938 C 1220.957031 429.957031 1243.128906 439.695312 1265.222656 446.585938 C 1287.320312 453.402344 1309.34375 457.445312 1331.441406 453.550781 C 1353.539062 449.65625 1375.710938 437.972656 1397.957031 431.078125 C 1420.203125 424.1875 1442.375 422.242188 1464.621094 430.105469 C 1486.867188 437.972656 1509.039062 455.648438 1531.289062 463.515625 C 1553.535156 471.378906 1575.707031 469.429688 1597.953125 466.433594 C 1620.199219 463.4375 1642.371094 459.394531 1664.617188 452.578125 C 1686.863281 445.6875 1709.035156 435.949219 1731.285156 431.078125 C 1753.53125 426.210938 1775.703125 426.210938 1797.800781 428.082031 C 1819.894531 429.957031 1841.917969 433.703125 1864.015625 441.566406 C 1886.113281 449.433594 1908.285156 461.417969 1930.53125 465.386719 C 1952.777344 469.429688 1974.949219 465.386719 1997.195312 460.441406 C 2019.441406 455.425781 2041.613281 449.433594 2063.863281 445.460938 C 2086.109375 441.417969 2108.28125 439.46875 2119.441406 438.421875 L 2130.527344 437.445312 Z M 2130.527344 522.089844 " fill-opacity="1" fill-rule="nonzero"/></g><g clip-path="url(#2ac3d7d481)"><path fill="#c5919e" d="M 2130.527344 534.074219 L 2119.441406 537.070312 C 2108.28125 540.066406 2086.109375 546.058594 2063.863281 545.085938 C 2041.613281 544.039062 2019.441406 536.097656 1997.195312 533.101562 C 1974.949219 530.105469 1952.777344 532.050781 1930.53125 532.050781 C 1908.285156 532.050781 1886.113281 530.105469 1864.015625 532.050781 C 1841.917969 534.074219 1819.894531 540.066406 1797.800781 543.0625 C 1775.703125 546.058594 1753.53125 546.058594 1731.285156 545.085938 C 1709.035156 544.039062 1686.863281 542.089844 1664.617188 541.039062 C 1642.371094 540.066406 1620.199219 540.066406 1597.953125 540.066406 C 1575.707031 540.066406 1553.535156 540.066406 1531.289062 537.070312 C 1509.039062 534.074219 1486.867188 528.082031 1464.621094 529.054688 C 1442.375 530.105469 1420.203125 538.042969 1397.957031 538.042969 C 1375.710938 538.042969 1353.539062 530.105469 1331.441406 526.058594 C 1309.34375 522.089844 1287.320312 522.089844 1265.222656 522.089844 C 1243.128906 522.089844 1220.957031 522.089844 1198.707031 524.113281 C 1176.460938 526.058594 1154.289062 530.105469 1132.042969 532.050781 C 1109.796875 534.074219 1087.625 534.074219 1076.464844 534.074219 L 1065.378906 534.074219 L 1065.378906 508.605469 L 1076.464844 508.605469 C 1087.625 508.605469 1109.796875 508.605469 1132.042969 506.585938 C 1154.289062 504.636719 1176.460938 500.59375 1198.707031 497.746094 C 1220.957031 494.898438 1243.128906 493.101562 1265.222656 494.148438 C 1287.320312 495.125 1309.34375 498.871094 1331.441406 502.765625 C 1353.539062 506.585938 1375.710938 510.628906 1397.957031 510.628906 C 1420.203125 510.628906 1442.375 506.585938 1464.621094 508.605469 C 1486.867188 510.628906 1509.039062 518.570312 1531.289062 520.59375 C 1553.535156 522.613281 1575.707031 518.570312 1597.953125 516.621094 C 1620.199219 514.597656 1642.371094 514.597656 1664.617188 514.597656 C 1686.863281 514.597656 1709.035156 514.597656 1731.285156 514.597656 C 1753.53125 514.597656 1775.703125 514.597656 1797.800781 511.601562 C 1819.894531 508.605469 1841.917969 502.613281 1864.015625 503.589844 C 1886.113281 504.636719 1908.285156 512.578125 1930.53125 514.597656 C 1952.777344 516.621094 1974.949219 512.578125 1997.195312 512.578125 C 2019.441406 512.578125 2041.613281 516.621094 2063.863281 518.570312 C 2086.109375 520.59375 2108.28125 520.59375 2119.441406 520.59375 L 2130.527344 520.59375 Z M 2130.527344 534.074219 " fill-opacity="1" fill-rule="nonzero"/></g><g clip-path="url(#6926a88a79)"><path fill="#cd9ba1" d="M 2130.527344 552.050781 L 2119.441406 554.898438 C 2108.28125 557.820312 2086.109375 563.511719 2063.863281 564.5625 C 2041.613281 565.535156 2019.441406 561.789062 1997.195312 559.917969 C 1974.949219 558.042969 1952.777344 558.042969 1930.53125 557.070312 C 1908.285156 556.023438 1886.113281 554.074219 1864.015625 556.921875 C 1841.917969 559.765625 1819.894531 567.558594 1797.800781 569.429688 C 1775.703125 571.300781 1753.53125 567.257812 1731.285156 567.257812 C 1709.035156 567.257812 1686.863281 571.300781 1664.617188 570.402344 C 1642.371094 569.503906 1620.199219 563.8125 1597.953125 562.761719 C 1575.707031 561.789062 1553.535156 565.535156 1531.289062 563.511719 C 1509.039062 561.566406 1486.867188 553.773438 1464.621094 552.800781 C 1442.375 551.828125 1420.203125 557.519531 1397.957031 558.570312 C 1375.710938 559.542969 1353.539062 555.796875 1331.441406 553.925781 C 1309.34375 552.050781 1287.320312 552.050781 1265.222656 553.027344 C 1243.128906 554.074219 1220.957031 556.023438 1198.707031 557.070312 C 1176.460938 558.042969 1154.289062 558.042969 1132.042969 558.042969 C 1109.796875 558.042969 1087.625 558.042969 1076.464844 558.042969 L 1065.378906 558.042969 L 1065.378906 532.578125 L 1076.464844 532.578125 C 1087.625 532.578125 1109.796875 532.578125 1132.042969 530.554688 C 1154.289062 528.605469 1176.460938 524.5625 1198.707031 522.613281 C 1220.957031 520.59375 1243.128906 520.59375 1265.222656 520.59375 C 1287.320312 520.59375 1309.34375 520.59375 1331.441406 524.5625 C 1353.539062 528.605469 1375.710938 536.546875 1397.957031 536.546875 C 1420.203125 536.546875 1442.375 528.605469 1464.621094 527.558594 C 1486.867188 526.585938 1509.039062 532.578125 1531.289062 535.574219 C 1553.535156 538.570312 1575.707031 538.570312 1597.953125 538.570312 C 1620.199219 538.570312 1642.371094 538.570312 1664.617188 539.542969 C 1686.863281 540.589844 1709.035156 542.539062 1731.285156 543.585938 C 1753.53125 544.5625 1775.703125 544.5625 1797.800781 541.566406 C 1819.894531 538.570312 1841.917969 532.578125 1864.015625 530.554688 C 1886.113281 528.605469 1908.285156 530.554688 1930.53125 530.554688 C 1952.777344 530.554688 1974.949219 528.605469 1997.195312 531.601562 C 2019.441406 534.597656 2041.613281 542.539062 2063.863281 543.585938 C 2086.109375 544.5625 2108.28125 538.570312 2119.441406 535.574219 L 2130.527344 532.578125 Z M 2130.527344 552.050781 " fill-opacity="1" fill-rule="nonzero"/></g><g clip-path="url(#b8a3fcfc92)"><path fill="#d4a5a5" d="M 2130.527344 593.25 L 2119.441406 593.25 C 2108.28125 593.25 2086.109375 593.25 2063.863281 593.25 C 2041.613281 593.25 2019.441406 593.25 1997.195312 593.25 C 1974.949219 593.25 1952.777344 593.25 1930.53125 593.25 C 1908.285156 593.25 1886.113281 593.25 1864.015625 593.25 C 1841.917969 593.25 1819.894531 593.25 1797.800781 593.25 C 1775.703125 593.25 1753.53125 593.25 1731.285156 593.25 C 1709.035156 593.25 1686.863281 593.25 1664.617188 593.25 C 1642.371094 593.25 1620.199219 593.25 1597.953125 593.25 C 1575.707031 593.25 1553.535156 593.25 1531.289062 593.25 C 1509.039062 593.25 1486.867188 593.25 1464.621094 593.25 C 1442.375 593.25 1420.203125 593.25 1397.957031 593.25 C 1375.710938 593.25 1353.539062 593.25 1331.441406 593.25 C 1309.34375 593.25 1287.320312 593.25 1265.222656 593.25 C 1243.128906 593.25 1220.957031 593.25 1198.707031 593.25 C 1176.460938 593.25 1154.289062 593.25 1132.042969 593.25 C 1109.796875 593.25 1087.625 593.25 1076.464844 593.25 L 1065.378906 593.25 L 1065.378906 556.546875 L 1076.464844 556.546875 C 1087.625 556.546875 1109.796875 556.546875 1132.042969 556.546875 C 1154.289062 556.546875 1176.460938 556.546875 1198.707031 555.574219 C 1220.957031 554.523438 1243.128906 552.578125 1265.222656 551.527344 C 1287.320312 550.554688 1309.34375 550.554688 1331.441406 552.425781 C 1353.539062 554.300781 1375.710938 558.042969 1397.957031 557.070312 C 1420.203125 556.023438 1442.375 550.328125 1464.621094 551.304688 C 1486.867188 552.277344 1509.039062 560.066406 1531.289062 562.015625 C 1553.535156 564.035156 1575.707031 560.292969 1597.953125 561.265625 C 1620.199219 562.3125 1642.371094 568.007812 1664.617188 568.90625 C 1686.863281 569.804688 1709.035156 565.757812 1731.285156 565.757812 C 1753.53125 565.757812 1775.703125 569.804688 1797.800781 567.933594 C 1819.894531 566.058594 1841.917969 558.269531 1864.015625 555.421875 C 1886.113281 552.578125 1908.285156 554.523438 1930.53125 555.574219 C 1952.777344 556.546875 1974.949219 556.546875 1997.195312 558.417969 C 2019.441406 560.292969 2041.613281 564.035156 2063.863281 563.0625 C 2086.109375 562.015625 2108.28125 556.320312 2119.441406 553.398438 L 2130.527344 550.554688 Z M 2130.527344 593.25 " fill-opacity="1" fill-rule="nonzero"/></g></svg>